<?xml version="1.0" standalone="no"?>
<!DOCTYPE svg PUBLIC "-//W3C//DTD SVG 20010904//EN"
 "http://www.w3.org/TR/2001/REC-SVG-20010904/DTD/svg10.dtd">
<svg version="1.0" xmlns="http://www.w3.org/2000/svg"
 width="900.000000pt" height="507.000000pt" viewBox="0 0 900.000000 507.000000"
 preserveAspectRatio="xMidYMid meet">
<metadata>
Created by potrace 1.10, written by Peter Selinger 2001-2011
</metadata>
<g transform="translate(0.000000,507.000000) scale(0.100000,-0.100000)"
fill="#000000" stroke="none">
<path d="M1280 3292 c-36 -1 -79 -9 -97 -17 -17 -8 -38 -15 -45 -15 -8 0 -35
-11 -59 -25 -24 -13 -55 -29 -68 -35 -32 -14 -146 -125 -180 -175 -36 -53 -91
-167 -91 -189 0 -9 -7 -31 -16 -48 -12 -24 -16 -64 -17 -174 -1 -144 8 -192
50 -291 7 -17 13 -34 13 -38 0 -18 93 -147 142 -195 68 -68 186 -136 270 -157
128 -31 332 -17 418 29 66 35 146 91 166 117 20 26 34 1 34 -59 0 -48 4 -61
19 -70 23 -12 390 -14 409 -2 10 7 12 145 10 658 l-3 649 -220 0 -220 0 -3
-45 c-4 -74 -7 -75 -64 -32 -56 42 -132 82 -155 82 -8 0 -26 6 -41 14 -29 14
-146 23 -252 18z m308 -387 c117 -41 185 -118 213 -244 13 -60 2 -134 -33
-206 -24 -52 -44 -74 -98 -111 -85 -58 -227 -69 -324 -24 -45 20 -111 86 -140
138 -24 45 -33 176 -16 239 25 92 102 172 198 207 51 19 148 19 200 1z"/>
<path d="M3120 3290 c-81 -9 -181 -62 -261 -137 -37 -36 -73 -62 -79 -58 -5 3
-10 40 -10 80 0 69 -2 75 -22 80 -13 3 -111 4 -218 3 l-195 -3 0 -655 0 -655
198 -3 c121 -1 205 2 217 8 18 9 19 28 22 377 l4 368 26 55 c30 64 54 91 111
127 39 25 49 27 148 26 94 -1 112 -4 159 -28 l53 -27 19 23 c10 13 24 38 32
54 7 17 20 36 29 44 16 12 17 -23 17 -496 0 -383 3 -512 12 -521 17 -17 399
-17 416 0 9 9 12 109 12 391 0 398 4 441 46 508 86 137 310 115 385 -38 24
-48 24 -51 27 -448 2 -258 7 -404 14 -412 8 -10 62 -13 208 -13 109 0 205 3
214 6 14 5 16 51 16 408 0 220 4 418 9 438 24 104 140 167 260 143 72 -15 120
-56 156 -131 l25 -53 0 -380 c0 -222 4 -390 10 -405 l10 -26 195 0 c116 0 204
4 216 10 18 10 19 23 19 180 0 139 3 170 14 170 8 0 24 -19 36 -42 40 -79 243
-258 291 -258 8 0 20 -5 27 -12 60 -60 393 -91 584 -56 101 19 234 80 320 145
54 41 148 140 148 155 0 4 13 27 30 51 17 25 30 50 30 56 0 7 7 26 16 43 9 16
20 75 26 129 15 159 -13 326 -70 406 -12 17 -22 35 -22 40 0 18 -115 135 -183
185 -76 57 -203 118 -244 118 -13 0 -38 7 -54 16 -44 22 -364 22 -408 0 -16
-9 -41 -16 -54 -16 -39 0 -168 -62 -244 -117 -98 -71 -178 -158 -199 -215 -3
-9 -16 -24 -29 -32 -21 -14 -23 -14 -29 7 -3 12 -6 34 -6 50 0 15 -4 35 -8 45
-5 9 -19 39 -32 65 -27 55 -125 150 -178 173 -110 46 -156 56 -269 56 -78 0
-121 -5 -140 -15 -15 -8 -57 -29 -93 -46 -36 -18 -96 -62 -133 -97 -38 -35
-74 -64 -81 -64 -8 0 -25 17 -40 39 -27 39 -80 91 -93 91 -3 0 -14 7 -23 15
-10 9 -44 25 -76 36 -32 12 -67 25 -77 30 -9 6 -71 10 -137 10 -94 1 -126 -3
-145 -15 -13 -9 -31 -16 -39 -16 -21 0 -129 -66 -156 -95 -13 -14 -34 -25 -46
-25 -21 0 -23 5 -26 58 l-3 57 -225 5 c-137 3 -233 9 -245 16 -26 14 -144 22
-215 14z m3345 -388 c99 -33 165 -101 196 -205 47 -154 -20 -314 -159 -379
-37 -18 -65 -22 -137 -23 -111 0 -161 19 -225 85 -102 104 -118 253 -42 395
28 54 108 115 167 129 100 24 123 23 200 -2z"/>
<path d="M7815 2481 c-63 -16 -154 -92 -189 -156 -30 -57 -29 -192 1 -251 68
-129 209 -190 347 -150 66 19 133 75 173 144 35 59 43 162 18 230 -20 54 -92
133 -148 162 -42 22 -154 34 -202 21z"/>
<path d="M4430 1565 c0 -8 7 -15 15 -15 8 0 15 7 15 15 0 8 -7 15 -15 15 -8 0
-15 -7 -15 -15z"/>
<path d="M2738 1493 c-31 -8 -21 -33 13 -33 23 0 30 4 27 17 -3 18 -15 23 -40
16z"/>
<path d="M3895 1486 c-100 -45 -115 -182 -26 -242 45 -30 101 -32 126 -4 13
15 15 24 8 31 -8 8 -13 8 -17 0 -10 -15 -77 -13 -97 2 -48 37 -51 115 -6 165
22 24 84 31 104 11 8 -8 13 -7 18 1 20 32 -61 59 -110 36z"/>
<path d="M4993 1489 c-11 -4 -24 -12 -27 -18 -4 -6 -18 -6 -36 -1 -20 6 -32 5
-37 -3 -10 -17 -14 -310 -3 -326 4 -8 15 -11 24 -8 12 5 16 20 16 57 0 57 18
74 49 46 26 -24 62 -19 102 13 72 59 75 163 6 214 -39 29 -66 37 -94 26z m68
-52 c50 -42 44 -128 -10 -160 -41 -24 -58 -21 -92 12 -39 39 -40 96 -3 140 31
37 68 40 105 8z"/>
<path d="M5614 1484 c-59 -29 -76 -56 -76 -123 0 -70 2 -73 54 -112 28 -19 53
-29 77 -29 37 1 81 28 81 50 0 8 -8 10 -22 5 -57 -18 -93 -17 -121 5 -30 24
-36 55 -11 64 9 3 46 6 83 6 72 0 91 10 91 47 0 23 -64 93 -86 93 -7 0 -18 2
-26 5 -7 2 -27 -2 -44 -11z m85 -44 c17 -15 22 -26 17 -45 -6 -22 -12 -25 -52
-25 -49 0 -84 14 -84 32 0 22 43 58 69 58 14 -1 37 -10 50 -20z"/>
<path d="M3229 1467 c-32 -27 -59 -77 -59 -111 0 -36 36 -92 74 -116 44 -27
84 -25 121 4 27 22 28 25 12 32 -10 3 -23 2 -30 -5 -14 -14 -59 -14 -89 -1
-23 11 -53 59 -42 69 3 3 44 8 91 11 103 6 119 19 88 72 -10 18 -28 41 -40 50
-29 25 -94 22 -126 -5z m113 -30 c26 -21 27 -24 12 -45 -14 -20 -23 -23 -67
-20 -46 3 -52 6 -55 26 -5 31 24 62 57 62 14 -1 38 -11 53 -23z"/>
<path d="M6197 1462 c-15 -15 -27 -35 -27 -44 0 -21 72 -78 97 -78 11 0 28 -9
38 -20 15 -17 16 -24 7 -45 -13 -29 -55 -34 -86 -10 -22 17 -56 20 -56 6 0
-16 66 -51 97 -51 44 0 83 38 83 80 -1 38 -24 62 -73 74 -16 4 -38 15 -49 25
-16 16 -18 23 -9 40 14 26 81 30 101 6 9 -11 16 -13 23 -6 21 21 -22 51 -73
51 -38 0 -51 -5 -73 -28z"/>
<path d="M2637 1473 c-4 -3 -7 -57 -7 -120 0 -90 3 -113 14 -113 20 0 26 23
26 91 0 33 7 73 15 89 14 26 13 29 -10 44 -28 18 -29 19 -38 9z"/>
<path d="M4432 1360 c4 -161 22 -163 26 -2 2 105 0 122 -13 122 -13 0 -15 -17
-13 -120z"/>
</g>
</svg>
